<svg xmlns="http://www.w3.org/2000/svg" xml:space="preserve" viewBox="0 0 404.456 404.456">
  <g fill="#010002">
    <circle cx="202.224" cy="202.228" r="26.686"/>
    <path d="M83.807 49.322 50.87 4.891c-9.519-9.527-30.71-3.78-40.236 5.747S-4.64 41.347 4.887 50.874l44.431 32.937c9.519 9.519 24.963 9.527 34.49 0 9.526-9.527 9.518-24.971-.001-34.489zM393.823 10.638c-9.527-9.527-30.71-15.274-40.236-5.747L320.65 49.322c-9.527 9.527-9.527 24.963 0 34.49 9.527 9.527 24.963 9.519 34.49 0l44.431-32.937c9.525-9.528 3.778-30.711-5.748-40.237zM355.139 320.645c-9.527-9.527-24.963-9.527-34.49 0-9.527 9.527-9.527 24.963 0 34.49l32.937 44.431c9.527 9.519 30.71 3.78 40.236-5.747s15.274-30.71 5.747-40.236l-44.43-32.938zM49.318 320.645 4.887 353.582c-9.527 9.527-3.78 30.71 5.747 40.236s30.71 15.274 40.236 5.747l32.937-44.431c9.527-9.519 9.527-24.963 0-34.49-9.527-9.517-24.963-9.517-34.489.001z"/>
  </g>
</svg>
