<svg xmlns="http://www.w3.org/2000/svg" xml:space="preserve" viewBox="0 0 484.227 484.227">
  <g fill="#010002">
    <path d="M403.673 217.728h57.55c-1.943-17.655-5.95-34.693-11.811-50.844l34.807-34.807-40.228-40.236-22.354 22.354c-11.282-15.802-24.548-30.084-39.513-42.399l20.899-20.899-40.228-40.236-30.336 30.336c-21.411-9.632-44.618-15.981-69.012-18.322v57.412c72.109 9.453 129.44 65.955 140.226 137.641zM22.996 217.728h57.55c10.486-69.654 64.899-124.952 134.13-136.715V23.382c-22.158 2.756-43.293 8.787-62.907 17.606l-30.344-30.344-40.237 40.237 20.907 20.907C87.13 84.102 73.864 98.384 62.59 114.186L40.236 91.833 0 132.069l34.807 34.807c-5.861 16.159-9.869 33.197-11.811 50.852z"/>
    <circle cx="237.655" cy="242.114" r="20.947"/>
    <path d="m362.803 473.575 40.228-40.236-20.899-20.899c14.965-12.315 28.231-26.597 39.513-42.399l22.354 22.354 40.228-40.236-34.807-34.807c5.861-16.151 9.868-33.189 11.811-50.844h-57.55c-10.787 71.686-68.117 128.188-140.226 137.649v57.412c24.386-2.341 47.593-8.689 69.012-18.322l30.336 30.328zM62.582 370.041c11.282 15.802 24.54 30.084 39.505 42.399L81.18 433.347l40.236 40.236 30.344-30.344c19.614 8.828 40.749 14.859 62.907 17.607v-57.632C145.444 391.452 91.023 336.153 80.546 266.5h-57.55c1.943 17.655 5.95 34.693 11.811 50.844L0 352.15l40.236 40.236 22.346-22.345z"/>
  </g>
</svg>
