<svg xmlns="http://www.w3.org/2000/svg" xml:space="preserve" viewBox="0 0 477.554 477.554">
  <g fill="#010002">
    <path d="M267.227 12.193c0-6.73-21.72-12.193-28.45-12.193s-28.45 5.462-28.45 12.193l16.257 180.861c0 6.73 5.462 12.193 12.193 12.193s12.193-5.462 12.193-12.193l16.257-180.861zM272.307 238.777c0 6.73 5.462 12.193 12.193 12.193l180.861 8.129c6.73 0 12.193-13.591 12.193-20.321s-5.462-20.321-12.193-20.321L284.5 226.584c-6.73 0-12.193 5.462-12.193 12.193zM238.777 477.554c6.73 0 28.45-5.462 28.45-12.193L250.97 284.5c0-6.73-5.462-12.193-12.193-12.193s-12.193 5.462-12.193 12.193l-16.257 180.861c0 6.73 21.719 12.193 28.45 12.193zM0 238.777c0 6.73 5.462 20.321 12.193 20.321l180.861-8.129c6.73 0 12.193-5.462 12.193-12.193s-5.462-12.193-12.193-12.193l-180.861-8.129C5.462 218.455 0 232.046 0 238.777zM329.305 211.083l94.641-17.005c4.414-.797 7.356-5.015 6.568-9.437-.797-4.414-5.04-7.356-9.437-6.568l-94.641 17.005c-4.414.797-7.356 5.015-6.568 9.437.707 3.926 4.129 6.69 7.99 6.69.48 0 .959-.033 1.447-.122zM329.305 267.487c-4.406-.797-8.649 2.154-9.437 6.568-.797 4.422 2.146 8.641 6.568 9.437l94.641 17.005c.488.089.967.13 1.447.13 3.861 0 7.283-2.764 7.99-6.69.797-4.422-2.146-8.641-6.568-9.437l-94.641-17.013zM160.954 211.083c.488.089.967.13 1.447.13 3.861 0 7.283-2.764 7.99-6.69.797-4.422-2.146-8.641-6.568-9.437l-94.641-17.005c-4.43-.788-8.649 2.154-9.437 6.568-.797 4.422 2.146 8.641 6.568 9.437l94.641 16.997zM66.313 284.492c-4.414.797-7.356 5.015-6.568 9.437.707 3.926 4.129 6.69 7.99 6.69.48 0 .959-.041 1.447-.13l94.641-17.005c4.414-.797 7.356-5.015 6.568-9.437-.797-4.414-5.032-7.364-9.437-6.568l-94.641 17.013z"/>
    <circle cx="238.777" cy="236.745" r="9.657"/>
  </g>
</svg>
