<svg xmlns="http://www.w3.org/2000/svg" xml:space="preserve" viewBox="0 0 350.977 350.977">
  <g fill="#010002">
    <path d="M8.95 173.759c-.203.352-.34.716-.489 1.08-.298.358-.597.716-.841 1.128-2.548 4.23-1.181 9.732 3.055 12.286l23.587 14.207a8.894 8.894 0 0 0 4.606 1.283c3.031 0 5.991-1.545 7.673-4.338 2.548-4.231 1.181-9.732-3.055-12.286l-16.14-9.72c13.968-27.286 26.183-77.068-13.772-101.144-4.231-2.548-9.732-1.181-12.292 3.049-2.548 4.236-1.181 9.738 3.049 12.292 15.854 9.553 21.487 25.228 17.202 47.92-3.472 18.407-12.499 34.088-12.583 34.243zM139.589 36.539c3.031 0 5.991-1.545 7.673-4.332 2.548-4.236 1.181-9.738-3.049-12.292L120.626 5.703c-.424-.257-.871-.448-1.319-.621-.072-.03-.143-.078-.215-.101-.453-.167-.919-.269-1.378-.358-.107-.024-.215-.066-.328-.078-.424-.066-.853-.072-1.283-.078-.149 0-.304-.03-.453-.018-.382.018-.758.09-1.134.149-.191.03-.388.042-.573.084-.334.078-.656.209-.979.328-.215.078-.442.131-.65.227-.292.131-.561.31-.835.477-.221.131-.453.239-.662.388-.263.185-.489.418-.728.632-.197.173-.412.328-.591.525-.227.245-.418.531-.621.806-.149.197-.316.37-.453.585-.095.149-9.738 15.46-24.387 27.131-18.086 14.392-34.578 16.743-50.414 7.19-4.231-2.542-9.732-1.181-12.292 3.049-2.548 4.236-1.181 9.738 3.049 12.292 9.607 5.788 19.112 8.21 28.259 8.21 27.812 0 52.276-22.423 66-41.106l16.337 9.845a8.9478 8.9478 0 0 0 4.613 1.278zM317.348 42.972c-15.836 9.553-32.334 7.202-50.402-7.196C252.297 24.105 242.655 8.8 242.559 8.645c-.137-.215-.31-.394-.459-.591-.203-.269-.388-.555-.615-.794-.179-.191-.388-.346-.579-.519-.245-.221-.477-.453-.746-.638-.191-.137-.406-.233-.609-.358-.298-.179-.585-.37-.901-.507-.179-.078-.364-.125-.549-.191-.358-.131-.716-.274-1.086-.364-.149-.036-.304-.042-.453-.066-.418-.078-.829-.149-1.253-.167-.119-.006-.239.018-.358.018-.459 0-.919.012-1.372.084-.095.012-.185.048-.274.066-.483.09-.961.203-1.432.376-.072.03-.143.072-.215.101-.448.179-.895.37-1.319.621l-23.587 14.207c-4.23 2.554-5.597 8.055-3.049 12.292 1.683 2.787 4.642 4.332 7.673 4.332 1.575 0 3.168-.412 4.612-1.283l16.337-9.845c13.724 18.682 38.188 41.106 66 41.106 9.141 0 18.658-2.429 28.259-8.21 4.23-2.554 5.597-8.055 3.049-12.292-2.553-4.239-8.067-5.599-12.285-3.051zM346.645 91.59c4.23-2.554 5.597-8.055 3.049-12.292-2.56-4.236-8.073-5.597-12.292-3.049-39.954 24.07-27.746 73.852-13.772 101.144l-16.14 9.72c-4.236 2.554-5.597 8.055-3.055 12.286 1.683 2.792 4.642 4.338 7.673 4.338 1.575 0 3.168-.412 4.606-1.283l23.587-14.207c4.236-2.554 5.597-8.055 3.055-12.286-.245-.406-.537-.758-.835-1.11-.155-.376-.298-.752-.507-1.11-.339-.584-33.849-58.97 4.631-82.151zM165.485 337.574c-.024-45.318-46.166-60.922-76.847-63.708l-.006-19.1c0-4.941-4.01-8.944-8.95-8.944h-.006c-4.941 0-8.944 4.01-8.944 8.956l.012 27.531c0 .28.06.537.084.811.03.31.036.632.095.931.06.31.173.603.269.901.084.257.137.531.239.776.125.304.298.585.459.871.119.215.221.448.358.656.179.275.4.513.609.758.161.191.298.394.471.573.221.221.471.406.716.603.203.167.388.352.609.501.239.167.507.286.764.43.251.137.489.292.752.406.257.113.537.173.806.263.286.095.567.209.871.269.274.06.573.066.853.095.292.036.579.095.883.101.68.006 67.992 1.408 68.004 46.333 0 4.941 4.01 8.944 8.95 8.944h.006c4.939-.001 8.943-4.011 8.943-8.957zM236.503 298.079c17.555-6.534 35.64-6.904 35.819-6.904.406-.006.8-.078 1.187-.137.453.072.913.137 1.384.137h.006c4.941 0 8.944-4.01 8.944-8.956l-.012-27.531c0-4.941-4.01-8.944-8.95-8.944h-.006c-4.941 0-8.944 4.01-8.944 8.956l.006 18.843c-30.58 2.13-79.515 17.37-79.497 64.03 0 4.941 4.01 8.944 8.95 8.944h.006c4.941 0 8.944-4.01 8.944-8.956.001-18.508 10.521-31.427 32.163-39.482z"/>
    <circle cx="175.485" cy="159.069" r="14.171"/>
    <path d="m274.231 85.927-41.094 27.412c-5.484 3.658-6.963 11.069-3.312 16.546 2.303 3.449 6.086 5.316 9.941 5.316 2.273 0 4.577-.644 6.605-2.005l41.094-27.412c5.484-3.658 6.963-11.069 3.312-16.546-3.657-5.483-11.068-6.981-16.546-3.311zM175.814 214.555h-.107c-6.546 0-11.874 5.275-11.934 11.826l-.442 49.394c-.06 6.587 5.239 11.981 11.826 12.041h.107c6.546 0 11.874-5.275 11.934-11.826l.442-49.394c.06-6.593-5.239-11.981-11.826-12.041zM76.74 85.927c-5.495-3.67-12.894-2.172-16.546 3.312-3.652 5.478-2.172 12.888 3.312 16.546l41.094 27.412c2.035 1.36 4.338 2.005 6.605 2.005 3.855 0 7.638-1.862 9.941-5.316 3.652-5.478 2.172-12.888-3.312-16.546L76.74 85.927z"/>
  </g>
</svg>
