<svg xmlns="http://www.w3.org/2000/svg" version="1.1" id="Layer_2" x="0px" y="0px" enable-background="new 0 0 395 346" viewBox="67.4 59.59 242.4 153.2">
  <g transform="matrix(1, 0, 0, 1, 14.037604, -82.905479)">
    <g transform="matrix(1, 0, 0, 1, -15.837564, 83.494476)">
      <path d="M209.3,59C232,59,257,64.9,277,72.9c17.2,6.9,30.4,13,30.4,22c0,4.6-3.4,6-9.6,6c-0.9,3.3-1.9,7.9-11.5,9.7    c-9.6,1.8-23.8,3.1-34.4,4.4c-10.6,1.3-14.9,2.7-17,5c-2,2.3-1.9,8.2-0.8,13.6c1.9,1.3,5.8,3.9,9.9,3.9c3.8,0,8-2.7,11.2-2.7    c4.1,0,11.3,10.5,11.3,17c0,1.7-0.5,2.8-0.9,3.6c-0.2,0.4-0.3,0.8-0.2,1.2c0.2,0.7,0.1,1.4-0.4,2.7c-0.5,1.4-1.7,5.5-6.7,10.1    c-1,0.9-2.6,0.1-2.4-1.3c0.3-1.9,0.4-3.6,0.3-4.6c-1.9,2.5-5.8,5.9-11.4,5.9c-1.5,0-2.3-0.8-2.3-1.9c0-1.6,2.6-2.4,4.1-5.8    c-1.5,1.2-6.1,4-8.8,4.4c-0.5,0.1-1,0.2-1.4,0.4c-1.3,0.6-2.4,1.2-4.6,1.2c-2.7,0-4.6-2.3-5.5-2.4c-0.9-0.1-2.5-0.2-2.5-0.2    c-0.7,0.9-3.3,3-7.7,3c-1.5,7.6-5.2,11.2-11.3,15.1c-0.2,0.1-0.3,0.4-0.1,0.6c1.4,2.3,3.5,6,4.4,7.6c0.3,0.6,0.9,0.9,1.6,0.9    c4.7-0.2,15.4-1.7,18.4,4c0.1,0.1,0.2,0.2,0.3,0.2c3.1,0.5,7.6,4.8,8.9,11c0.3,1.3-0.7,2.5-2,2.5l-3.6,0v0.5    c0,0.7-0.6,1.2-1.2,1.2h-7.2l-0.3,0.3c-0.3,0.1-0.7,0.2-1,0.2h-31.7c-4.9,0-7.5-0.4-7.8-2.4c-1.2-9.2-5.2-17.5-9.9-23.6    c-1-1.3-1.1-3-0.2-4.4c2-3,4.6-6,5.8-6.9c-7.6-10.5-7.6-18.2-7.7-22.5c-4.6-1.6-18.2-5.7-37-5.7c-13.6,0-23.8,2.6-23.8,2.6    c-1.5,1.3-3.5,2.6-5.6,5.1c-2.1,2.5-3.4,5.1-5.2,6.2c-2,1.2-3.6,0.5-5.1,2.1c-1.4,1.5-2.4,3.6-6.9,3c0,0,0,0-0.1,0    c-1.3,1.2-2.1,2.4-4.5,2.4c-1.5,0-2.6-0.6-3.1-1.1c-0.4-0.3-0.8-0.3-1.3-0.1c-0.9,0.5-2,1-3.6,1c-2,0-3.1-1.6-3.3-3    c0-0.1-0.1-0.2-0.2-0.2c-1.1,0-2.6-0.3-2.6-1.7c0-1.5,3.2-5.2,12.6-10.6c4.7-4,15.8-10.8,32.4-16.2c16.4-5.3,30.1-10.3,53-10.3    c20.6,0,25.6,2.7,36.1,2.7c3.6,0,8.7-1.1,8.7-8.5c0-9.5-6.8-23.1-7-30.5c-2.9,1-9.9,4.1-13.1-3.5c-3.3,1.7-7.7,2.7-9.4-0.1    c-0.9-1.4,0.3-4,0.8-4.5c-2.7,0.7-8.5,1.6-9.5-1.1c-1.1-2.8,2.7-5.5,3.9-6.6c-1.9-0.2-6.1-0.4-6.1-2.8S182.9,59,209.3,59z"/>
      <g>
        <g>
          <g>
            <g>
              <path fill="#FFFFFF" d="M261.6,160.9c-0.5,1.1-0.8,2.4-2.6,4.3c0,0-0.1,0-0.1,0c0-0.9-0.3-4-0.3-4.4c0,0,0-0.1,0.1,0        C259.5,160.8,260.9,160.9,261.6,160.9C261.6,160.8,261.6,160.9,261.6,160.9z"/>
              <g>
                <path fill="#FFFFFF" d="M227.6,198.7c-2,0-3.4,1.3-3.9,1.9c3.3,1,6.3,4.7,7.3,6.4h4.3C234,202.2,231,198.7,227.6,198.7z"/>
                <path fill="#FFFFFF" d="M215.1,203.6c-3.3,0-4.7,3.3-4.9,5.6h11.5C220.2,207,217.5,203.6,215.1,203.6z"/>
                <path fill="#FFFFFF" d="M223.1,203c-1.3,0-2.2,0.6-2.7,1c1.2,1,3.3,3.5,4,4.8h4.8C227.4,206,224.4,203,223.1,203z"/>
              </g>
            </g>
            <path fill="#FFFFFF" d="M249.1,162c0.8,1,2.1,1.6,3.1,1.8c0,0,0.1,0.1,0,0.1c-1.2,1.3-3.9,2.5-5.9,2.6c0,0-0.1-0.1,0-0.1       C247.1,165.6,248.4,163.4,249.1,162C249,161.9,249,161.9,249.1,162z"/>
            <path fill="#FFFFFF" d="M241.1,158.7c0.9,0.8,2.1,1.3,2.9,1.4c0,0,0.1,0.1,0,0.1c-1.4,0.9-3.3,2.2-5.9,2.8c0,0-0.1,0-0.1-0.1       C239,161.8,240.5,159.7,241.1,158.7C241,158.7,241.1,158.7,241.1,158.7z"/>
          </g>
          <g>
            <g>
              <path fill="#F15B25" d="M192.8,76.1c-0.2,0-0.4,0-0.6,0.1l-9.7,2.6c-1.1,0.3-2.9,0.6-4.4,0.6c-1,0-1.6-0.1-1.8-0.2        c0-0.3,1.6-2.8,6.3-5.5c0.2-0.1,1.8,0,2.4,0c0.1,0,0.2-0.1,0.1-0.2l-1.1-1.3c-0.4-0.5-1.1-0.9-1.8-0.9l-4.6-0.2        c-0.5,0-1.6-0.1-2.4-0.3c-0.1,0-0.1-0.1,0-0.1c3-2.7,13.2-8.8,34.3-8.8c11.2,0,23.6,1.5,36.1,4.3c0,0-12.3,1.4-12.5,1.5        c-0.2,0.1-14.5-1.5-14.5-1.5c0.1-0.3,0-0.9-0.6-0.9c-2,0-3.7,1.9-5.3,1.9c-1.6,0-4-1.5-8.3-1.5c-9.3,0-17.3,5.5-16.9,6.3        c0.4,0.8,7.6-4.1,15.3-4.1c3.5,0,5,0.4,6.3,1.1c0.3,0.1,0.7,0.6,0.5,0.9c-0.2,0.4-0.5,0.3-0.9,0.2c-0.5-0.2-1.4-0.4-2.9-0.4        c-5.1,0-8.9,3.9-9.6,5.7c0,0.1,0,0.1,0.1,0.1c7.5-4.6,11.8-3.9,11.8-3c0,1.1-7.3,1.3-8.6,7.5c1.4-2.2,5.3-3.9,7.3-4.6        c0.3-0.1,0.6,0.1,0.6,0.5c-0.1,0.9-0.2,2.3,0,3.8c0.3,2.1,1,4.5-0.4,7.1c-0.5-1-0.6-3.7-0.5-4.7c-1.5,1.2-1.8,3-1.7,4.8        c0,0.2-0.1,0.3-0.3,0.4c-2.3,0.9-4.2,1.2-5.8,1.2c-1.4,0-3.1-0.6-4.3-3.2c-0.1-0.2,0-0.4,0.1-0.5l3.5-2.4        c-0.6-0.5-1-0.8-1.8-0.8c-1.5,0-8.3,4.4-11.3,3.4c-0.2-0.1-0.3-0.3-0.2-0.4c0.6-1.5,2.3-3.9,2.8-4.3c0.5-0.4,4.1-1.6,7.3-3.9        C194.5,76.2,193.3,76.1,192.8,76.1z"/>
              <g>
                <path fill="#62564C" d="M276,75.5c-11.6-4.6-23.9-8.2-35.9-10.5c-5.2-0.2-12-0.4-15.3-0.4c-5.8,0-8.8,2.2-11.4,4.8         c-2.7,2.6-3.6,5.3-4.5,7c-0.9,1.7-2.4,4.3-2.4,6.5c0,8.1,2.7,14.4,4.2,19.2c1.9,6.2,3.9,12.5,3.9,18.1         c0,7.1-4.2,11.3-11.5,11.3c-4.5,0-8.1-0.5-12.1-1c-5.7-0.8-12.2-1.8-24-1.8c-21,0-33.9,4.3-49,9.2l-3.1,1         c-14.7,4.7-25.3,10.6-30.7,14.8c-0.1,0.1-0.1,0.3,0.1,0.3c0.8,0.2,2.8-0.1,5.9-1.1c3.5-1.2,13.4-4.4,19.4-5.9         c0.4-0.1,11-3,24.8-3c19.8,0,32.8,4.3,36.8,5.8c0,0,0-1.5,0-2.5c0.8,0.4,1.4,1.4,1.8,2.4c0.5,1.2,0.7,2.4,0.8,3.7         c0.2,4.3,1.2,11.5,7.4,20.2c0,0,2,3,4.7,5.5c0,0,0,0,0,0c-2.9,0.5-5.2-2-5.2-2c-0.8,0.6-3.2,3.4-5.1,6.2         c-0.2,0.3-0.2,0.8,0.1,1.2c5.3,6.9,8.9,15.4,10.2,23.9c0.1,0.5,0.4,0.8,0.9,0.8c0.8,0.1,2.3,0.1,4.5,0.1h16.7         c0.1-5.2,4.6-8.1,7.1-8.1c1.5,0,2.5,0.5,3.5,1.2l3.4-1.6c-0.4-0.5-2-2.6-5.9-2.6c-5.1,0-11.3,0.6-14.3,0.6         c-3,0-3.6-3-6.3-6.6c-2.6-3.6-6.2-4.6-6.2-7.1c0-3,17.7-10.6,17.7-20.4c0-6-5.1-13.6-7.8-18.1c5.4,0.3,11,14.2,10.3,18.9         c7.6,1.1,11.3-1.1,12-1.9c-1.6-1.2-2-2.8-2.4-4.6c-4.2-3.4-3.8-8.5-3.5-11.5c0.2-2.9,0.3-4.2-0.6-5.9c0-0.1,0-0.1,0.1-0.1         c5.3,0.7,6.7,11.7,14.3,11.7c5.5,0,10.1-4.6,13.3-4.6c1.6,0,2.5,0.9,2.5,2.3c0,1.4-1.2,3.4-2.3,5.2c-0.4,0.7,0.1,1.7,0.9,1.7         l2.9,0c1.8,0,2.3,0.3,3.7,2s2.7,2,3.6,2c0.9,0,2.1-2.5,2.1-5.5c0-6.1-2.7-12.3-8.4-12.3c-3.5,0-5.1,0.6-9.5,0.6         c-7.6,0-10-1.3-12.7-3.2s-2.3-4.9-1.4-6.1c1.7,4.4,6.2,6.2,8.4,6.4c0,0-0.2-2.7-0.8-6.4l-0.2-1.1c-0.7-3.5-2-12.1,1.5-15.9         c2.6-2.9,7.5-4.5,18.7-5.9c3-0.4,6.4-0.8,9.8-1.1c8.7-1,17.6-2,24.4-3.3c7.2-1.3,8.4-4.1,9.2-6.8c0,0-30.1,0-42.6,0         c-12.6,0-14.2-1.1-18.4-3.5c-4.2-2.4-3.7-5.8-3-7c4.8,8.1,12.1,7.8,24.1,7.8s32,0,40.4,0h2.1c6.9,0,7-2,7-3.4         C304.7,87.5,291.1,81.5,276,75.5z"/>
                <g>
                  <path fill="#62564C" d="M262.5,158.2c0.4-0.6,0.5-1.1,0.5-1.1c-0.2-1-0.3-2,0.2-3c0.3-0.6,0.6-1.3,0.6-2.3          c0-5.5-6.4-14-8.6-14.2c-1.1,0-2.7,0.6-4.2,1.1c-2.1,0.7-4.5,1.6-7,1.6c-3.7,0-7.1-1.6-9.4-3c0,0,0,0,0,0          c0.3,1.9,0.3,4.5,0.3,4.7c0,0,0,0,0,0c2.1,0.1,8.9-0.6,12.8-0.6c4.8,0,7.7,2.9,9.3,7.1c1.5,3.9,1.9,7,1.4,9.2          c0,0.2,0.1,0.4,0.3,0.5C259.9,158.5,261.2,158.7,262.5,158.2z"/>
                  <path fill="#62564C" d="M225.8,196.5c-1.4-1.3-4.2-2-8.4-2c-1.7,0-3.3,0.1-4.8,0.2c-0.7,0-1.4,0.1-2,0.1l-0.2,0          c-1.6,0-3.1-0.9-3.9-2.3c-1.1-1.9-3.1-5.4-4.4-7.6c-0.9-1.5-0.4-3.4,1-4.3c5.5-3.5,8.5-5.3,10.1-12.6          c-2-0.1-4.3-0.4-4.3-0.4c-0.9,3.6-5,8.5-10,12.3c-3.2,2.5-5.9,4.9-7.3,4.9c0,0,0,0,0,0c1.2,1.4,4.6,3.9,6.1,6.2          c1.6,2.3,3,5.1,3.7,5.1c5.1,0,12.4-0.5,14.7-0.5c2.3,0,4.8,0.5,6.6,2.4C224.1,197,225.2,196.7,225.8,196.5z"/>
                </g>
              </g>
            </g>
            <g>
              <defs>
                <path id="SVGID_1_" d="M276,75.5c-11.6-4.6-23.9-8.2-35.9-10.5c-5.2-0.2-12-0.4-15.3-0.4c-5.8,0-8.8,2.2-11.4,4.8         c-2.7,2.6-3.6,5.3-4.5,7c-0.9,1.7-2.4,4.3-2.4,6.5c0,8.1,2.7,14.4,4.2,19.2c1.9,6.2,3.9,12.5,3.9,18.1         c0,7.1-4.2,11.3-11.5,11.3c-4.5,0-8.1-0.5-12.1-1c-5.7-0.8-12.2-1.8-24-1.8c-21,0-33.9,4.3-49,9.2l-3.1,1         c-14.7,4.7-25.3,10.6-30.7,14.8c-0.1,0.1-0.1,0.3,0.1,0.3c0.8,0.2,2.8-0.1,5.9-1.1c3.5-1.2,13.4-4.4,19.4-5.9         c0.4-0.1,11-3,24.8-3c19.8,0,32.8,4.3,36.8,5.8c0,0,0-1.5,0-2.5c0.8,0.4,1.4,1.4,1.8,2.4c0.5,1.2,0.7,2.4,0.8,3.7         c0.2,4.3,1.2,11.5,7.4,20.2c0,0,2,3,4.7,5.5c0,0,0,0,0,0c-2.9,0.5-5.2-2-5.2-2c-0.8,0.6-3.2,3.4-5.1,6.2         c-0.2,0.3-0.2,0.8,0.1,1.2c5.3,6.9,8.9,15.4,10.2,23.9c0.1,0.5,0.4,0.8,0.9,0.8c0.8,0.1,2.3,0.1,4.5,0.1h16.7         c0.1-5.2,4.6-8.1,7.1-8.1c1.5,0,2.5,0.5,3.5,1.2l3.4-1.6c-0.4-0.5-2-2.6-5.9-2.6c-5.1,0-11.3,0.6-14.3,0.6         c-3,0-3.6-3-6.3-6.6c-2.6-3.6-6.2-4.6-6.2-7.1c0-3,17.7-10.6,17.7-20.4c0-6-5.1-13.6-7.8-18.1c5.4,0.3,11,14.2,10.3,18.9         c7.6,1.1,11.3-1.1,12-1.9c-1.6-1.2-2-2.8-2.4-4.6c-4.2-3.4-3.8-8.5-3.5-11.5c0.2-2.9,0.3-4.2-0.6-5.9c0-0.1,0-0.1,0.1-0.1         c5.3,0.7,6.7,11.7,14.3,11.7c5.5,0,10.1-4.6,13.3-4.6c1.6,0,2.5,0.9,2.5,2.3c0,1.4-1.2,3.4-2.3,5.2c-0.4,0.7,0.1,1.7,0.9,1.7         l2.9,0c1.8,0,2.3,0.3,3.7,2s2.7,2,3.6,2c0.9,0,2.1-2.5,2.1-5.5c0-6.1-2.7-12.3-8.4-12.3c-3.5,0-5.1,0.6-9.5,0.6         c-7.6,0-10-1.3-12.7-3.2s-2.3-4.9-1.4-6.1c1.7,4.4,6.2,6.2,8.4,6.4c0,0-0.2-2.7-0.8-6.4l-0.2-1.1c-0.7-3.5-2-12.1,1.5-15.9         c2.6-2.9,7.5-4.5,18.7-5.9c3-0.4,6.4-0.8,9.8-1.1c8.7-1,17.6-2,24.4-3.3c7.2-1.3,8.4-4.1,9.2-6.8c0,0-30.1,0-42.6,0         c-12.6,0-14.2-1.1-18.4-3.5c-4.2-2.4-3.7-5.8-3-7c4.8,8.1,12.1,7.8,24.1,7.8s32,0,40.4,0h2.1c6.9,0,7-2,7-3.4         C304.7,87.5,291.1,81.5,276,75.5z"/>
              </defs>
              <clipPath id="SVGID_2_">
                <path d="M276,75.5c-11.6-4.6-23.9-8.2-35.9-10.5c-5.2-0.2-12-0.4-15.3-0.4c-5.8,0-8.8,2.2-11.4,4.8         c-2.7,2.6-3.6,5.3-4.5,7c-0.9,1.7-2.4,4.3-2.4,6.5c0,8.1,2.7,14.4,4.2,19.2c1.9,6.2,3.9,12.5,3.9,18.1         c0,7.1-4.2,11.3-11.5,11.3c-4.5,0-8.1-0.5-12.1-1c-5.7-0.8-12.2-1.8-24-1.8c-21,0-33.9,4.3-49,9.2l-3.1,1         c-14.7,4.7-25.3,10.6-30.7,14.8c-0.1,0.1-0.1,0.3,0.1,0.3c0.8,0.2,2.8-0.1,5.9-1.1c3.5-1.2,13.4-4.4,19.4-5.9         c0.4-0.1,11-3,24.8-3c19.8,0,32.8,4.3,36.8,5.8c0,0,0-1.5,0-2.5c0.8,0.4,1.4,1.4,1.8,2.4c0.5,1.2,0.7,2.4,0.8,3.7         c0.2,4.3,1.2,11.5,7.4,20.2c0,0,2,3,4.7,5.5c0,0,0,0,0,0c-2.9,0.5-5.2-2-5.2-2c-0.8,0.6-3.2,3.4-5.1,6.2         c-0.2,0.3-0.2,0.8,0.1,1.2c5.3,6.9,8.9,15.4,10.2,23.9c0.1,0.5,0.4,0.8,0.9,0.8c0.8,0.1,2.3,0.1,4.5,0.1h16.7         c0.1-5.2,4.6-8.1,7.1-8.1c1.5,0,2.5,0.5,3.5,1.2l3.4-1.6c-0.4-0.5-2-2.6-5.9-2.6c-5.1,0-11.3,0.6-14.3,0.6         c-3,0-3.6-3-6.3-6.6c-2.6-3.6-6.2-4.6-6.2-7.1c0-3,17.7-10.6,17.7-20.4c0-6-5.1-13.6-7.8-18.1c5.4,0.3,11,14.2,10.3,18.9         c7.6,1.1,11.3-1.1,12-1.9c-1.6-1.2-2-2.8-2.4-4.6c-4.2-3.4-3.8-8.5-3.5-11.5c0.2-2.9,0.3-4.2-0.6-5.9c0-0.1,0-0.1,0.1-0.1         c5.3,0.7,6.7,11.7,14.3,11.7c5.5,0,10.1-4.6,13.3-4.6c1.6,0,2.5,0.9,2.5,2.3c0,1.4-1.2,3.4-2.3,5.2c-0.4,0.7,0.1,1.7,0.9,1.7         l2.9,0c1.8,0,2.3,0.3,3.7,2s2.7,2,3.6,2c0.9,0,2.1-2.5,2.1-5.5c0-6.1-2.7-12.3-8.4-12.3c-3.5,0-5.1,0.6-9.5,0.6         c-7.6,0-10-1.3-12.7-3.2s-2.3-4.9-1.4-6.1c1.7,4.4,6.2,6.2,8.4,6.4c0,0-0.2-2.7-0.8-6.4l-0.2-1.1c-0.7-3.5-2-12.1,1.5-15.9         c2.6-2.9,7.5-4.5,18.7-5.9c3-0.4,6.4-0.8,9.8-1.1c8.7-1,17.6-2,24.4-3.3c7.2-1.3,8.4-4.1,9.2-6.8c0,0-30.1,0-42.6,0         c-12.6,0-14.2-1.1-18.4-3.5c-4.2-2.4-3.7-5.8-3-7c4.8,8.1,12.1,7.8,24.1,7.8s32,0,40.4,0h2.1c6.9,0,7-2,7-3.4         C304.7,87.5,291.1,81.5,276,75.5z" transform="matrix(1, 0, 0, 1, 0, 0)" overflow="visible"/>
              </clipPath>
              <g clip-path="url(#SVGID_2_)">
                <path fill="#990000" d="M205.9,84.4c0,0-0.6-0.4,0.7,1.7c1.9,3.2,6.2,11.9,9.6,20.4c1.4,3.7,2.8,6.2,2.8,7.9         c0,1.1-0.7,1.5-0.7,2.3c0,0.7,1.5,4.7-1.4,8.4c-0.1,0.2-0.2,0.4-0.2,0.6c-0.1,2.8-2,4.7-3.1,5.5c-2,1.5-1.8,5.3-8.4,5.3         c-1.9,0-3.5-0.4-4.8-0.4c-0.9,0-1.3,0.4-3.4,0.4s-4.8-1.9-7-1.9c-1.6,0-2.8,0.6-4.5,0.6c-3,0-7.2-1.8-9.5-1.8         c-1.6,0-2.3,0.3-3.9,0.3c-2.8,0-7.2-1.3-10-1.3c-1.6,0-2.1,0.7-4.5,0.7s-7.5-0.4-10.9-0.4c-1.9,0-3.4,1.6-6.4,1.9         s-5.6,0.6-9,1.7s-3.8,2-6.6,2c-2.8,0-5.7,0.8-10.2,2.4c-4.5,1.6-9.9,3.2-16.8,6.4c-6.9,3.2-11.4,5.8-13.1,6.7         c-1.7,0.8-2.9,1-2.9,1s4.2-7.2,6.5-9.2s95.9-44.1,95.9-44.1l20.1-22.2L205.9,84.4z"/>
                <path fill="#CEC6B2" d="M207.9,160.4c0,0,0.4,0.6,1.1,0.4c1.9,0,7.1,0.1,10.1-2c2,0.5,3.6,5.2,3.3,5.8         c-0.3,0.6-8.2,2.2-8.2,2.2s-6.2-0.3-6.1-0.4C208.1,166.4,207.9,160.4,207.9,160.4z"/>
                <g>
                  <path fill="#CEC6B2" d="M234,76.9c0-5.1,4.2-10,18.1-9.9c10.5,0.8,59.5,15.6,59.5,25.8s-32.1,28.3-32.1,28.3l-37,4.7          l-6.9,18c0,0-7.3,0.9-6.8-3.4c0.7-6.2-4.2-13.8-4.2-24.2c0-9.4,6.4-10,6.4-13.7c0-3.6-12.2-6.3-12.2-13          c0-4.6,4.9-6.8,10.2-6.8c1.5,0,3.1,0.2,4.3,0.3c0.8,0.1,1.4-0.6,1.2-1.3C234.2,79.9,234,78.4,234,76.9z"/>
                  <g>
                    <defs>
                      <path id="SVGID_3_" d="M234,76.9c0-5.1,4.2-10,18.1-9.9c10.5,0.8,59.5,15.6,59.5,25.8s-32.1,28.3-32.1,28.3l-37,4.7            l-6.9,18c0,0-7.3,0.9-6.8-3.4c0.7-6.2-4.2-13.8-4.2-24.2c0-9.4,6.4-10,6.4-13.7c0-3.6-12.2-6.3-12.2-13            c0-4.6,4.9-6.8,10.2-6.8c1.5,0,3.1,0.2,4.3,0.3c0.8,0.1,1.4-0.6,1.2-1.3C234.2,79.9,234,78.4,234,76.9z"/>
                    </defs>
                    <clipPath id="SVGID_4_">
                      <path d="M234,76.9c0-5.1,4.2-10,18.1-9.9c10.5,0.8,59.5,15.6,59.5,25.8s-32.1,28.3-32.1,28.3l-37,4.7            l-6.9,18c0,0-7.3,0.9-6.8-3.4c0.7-6.2-4.2-13.8-4.2-24.2c0-9.4,6.4-10,6.4-13.7c0-3.6-12.2-6.3-12.2-13            c0-4.6,4.9-6.8,10.2-6.8c1.5,0,3.1,0.2,4.3,0.3c0.8,0.1,1.4-0.6,1.2-1.3C234.2,79.9,234,78.4,234,76.9z" transform="matrix(1, 0, 0, 1, 0, 0)" overflow="visible"/>
                    </clipPath>
                    <g clip-path="url(#SVGID_4_)">
                      <path d="M228.9,86.9c1.4-0.7,3.7,0,5,2.5c0,0,0,0.1-0.1,0.1c-1.6-0.8-5.9-1.9-6.5,3c0,0.1-0.1,0.1-0.1,0            C226.9,91,226.4,88.2,228.9,86.9z"/>
                      <g>
                        <g>
                          <g>
                            <path d="M251.8,99.2c0.7,2.3,1.8,6.7,3.5,6.7s2.7-4.3,3.5-6.6L251.8,99.2z"/>
                            <path fill="#FFFFFF" d="M255.3,99.5h-1.7c0,0,0.9,4.8,1.7,4.8s1.7-4.8,1.7-4.8H255.3z"/>
                          </g>
                          <g>
                            <path d="M258.2,99.1c0.7,2.3,1.8,6.7,3.5,6.7c1.7,0,2.7-4.3,3.5-6.6L258.2,99.1z"/>
                            <path fill="#FFFFFF" d="M261.7,99.4H260c0,0,0.9,4.8,1.7,4.8s1.7-4.8,1.7-4.8H261.7z"/>
                          </g>
                          <g>
                            <path d="M264.6,99.1c0.7,2.3,1.8,6.7,3.5,6.7c1.7,0,2.7-4.3,3.5-6.6L264.6,99.1z"/>
                            <path fill="#FFFFFF" d="M268.1,99.4h-1.7c0,0,0.9,4.8,1.7,4.8s1.7-4.8,1.7-4.8H268.1z"/>
                          </g>
                          <g>
                            <path d="M271,99c0.7,2.3,1.8,6.7,3.5,6.7c1.7,0,2.7-4.3,3.5-6.6L271,99z"/>
                            <path fill="#FFFFFF" d="M274.5,99.3h-1.7c0,0,0.9,4.8,1.7,4.8s1.7-4.8,1.7-4.8H274.5z"/>
                          </g>
                          <g>
                            <path d="M277.4,99c0.7,2.3,1.8,6.7,3.5,6.7s2.7-4.3,3.5-6.6L277.4,99z"/>
                            <path fill="#FFFFFF" d="M280.9,99.3h-1.7c0,0,0.9,4.8,1.7,4.8s1.7-4.8,1.7-4.8H280.9z"/>
                          </g>
                          <g>
                            <path d="M283.8,98.9c0.7,2.3,1.8,6.7,3.5,6.7c1.7,0,2.7-4.3,3.5-6.6L283.8,98.9z"/>
                            <path fill="#FFFFFF" d="M287.3,99.2h-1.7c0,0,0.9,4.8,1.7,4.8s1.7-4.8,1.7-4.8H287.3z"/>
                          </g>
                        </g>
                        <g>
                          <path fill="#ABA390" d="M238,88.5c0-7.8,3.3-11.8,5.3-13.8c2-1.9,5.3-3.3,9.3-3.3s7.5,2,11.3,5.2              c3.8,3.2,5.5,5.4,8.1,6.8c2.7,1.4,5.8,1.9,9.3,4.2s5,3.7,5,4.9s-3.4,1.6-7.3,2.1c-3.9,0.4-11.2,0.8-17.3,3.7l-2,0.6              c0,0-12.6-0.2-15.3-0.8C241.6,97.4,238,95.1,238,88.5z"/>
                          <g>
                            <path fill="#336699" d="M251.6,73.7c5.4,0,10.6,4.5,12.6,6.1c2,1.6,5.6,4.6,6.8,5.9s3.9,4.4,3.6,5.6               c-0.2,0.8-4.3,0.5-10,1.7c-5.7,1.1-6.3,2.4-11.8,2.4s-11.6-1.7-11.6-11.4C241.2,78.3,246.6,73.7,251.6,73.7z"/>
                            <g>
                              <circle cx="252.3" cy="84.4" r="9.1"/>
                              <g>
                                <path fill="#FF934B" d="M249.9,86.2c0-2.3,1.9-4.2,4.2-4.2c2.3,0,4.2,1.9,4.2,4.2c0,0.5-0.1,0.9-0.2,1.3                 c0.5-0.9,0.8-2,0.8-3.1c0-3.6-2.9-6.6-6.6-6.6s-6.6,2.9-6.6,6.6c0,3.6,2.9,6.6,6.6,6.6c1.1,0,2.2-0.3,3.2-0.8                 c-0.4,0.1-0.9,0.2-1.3,0.2C251.8,90.4,249.9,88.5,249.9,86.2z"/>
                                <circle fill="#FFFFFF" cx="252.2" cy="82.7" r="1.6"/>
                              </g>
                            </g>
                          </g>
                        </g>
                      </g>
                    </g>
                  </g>
                </g>
              </g>
            </g>
          </g>
        </g>
        <g>
          <path fill="#F5D5AB" d="M89.3,163c1.8,0.3,2.9-1.6,3.2-1.9c0,0,0,0,0-0.1c0-1.2,0.1-3.5,0.1-4.4c0.2,1,0.4,1.6,0.5,3.7      c0,0.1,0.1,0.1,0.2,0.1c0.9-0.8,1.6-1.1,2.3-1.3c0,0,0.1-0.1,0.1-0.1c-0.1-1.4-0.2-1.9-0.4-3.6c0.4,0.9,0.6,2.1,1,3.5      c0,0,0.1,0.1,0.1,0.1c1.1-0.1,1.5-0.5,2-0.8c0.7-0.4,1.6-1.5,2.5-2.8c0.6-0.8,2.1-2.9,3.7-4.5c0.1-0.1,0-0.2-0.1-0.2      c-6.9,1.8-15.9,5.7-19.5,5.7c-1.9,0-2.6-0.6-3.1-1.3c0,0-0.1,0-0.1,0c-4.1,2.7-7.7,5.5-9.1,6.9c0,0,0,0.1,0,0.1      c0.9,0.4,1.8,1.6,2.1,2.7c0,0.1,0.1,0.1,0.1,0.1c2-1.6,6.8-5.8,7.3-6.3c-1.2,1.7-4.8,5.6-5.3,6.2c0.8-0.3,1.9-0.6,2.5-0.6      c0.9,0,1.9,0.2,2.6,0.7c0,0,0.1,0,0.1,0c1.2-1.7,3.9-6,3.9-6c-0.6,1.7-1.8,4.5-2.9,6.4c0,0.1,0,0.1,0.1,0.1      c2.1,0.2,2.6-2.6,5.1-2.5c0,0,0.1,0,0.1-0.1c0.6-1.5,1.4-5.5,1.5-6.3c0.1,1.8-0.2,4.2-0.6,6.3C89.2,162.9,89.3,162.9,89.3,163z"/>
          <g>
            <defs>
              <path id="SVGID_5_" d="M89.3,163c1.8,0.3,2.9-1.6,3.2-1.9c0,0,0,0,0-0.1c0-1.2,0.1-3.5,0.1-4.4c0.2,1,0.4,1.6,0.5,3.7        c0,0.1,0.1,0.1,0.2,0.1c0.9-0.8,1.6-1.1,2.3-1.3c0,0,0.1-0.1,0.1-0.1c-0.1-1.4-0.2-1.9-0.4-3.6c0.4,0.9,0.6,2.1,1,3.5        c0,0,0.1,0.1,0.1,0.1c1.1-0.1,1.5-0.5,2-0.8c0.7-0.4,1.6-1.5,2.5-2.8c0.6-0.8,2.1-2.9,3.7-4.5c0.1-0.1,0-0.2-0.1-0.2        c-6.9,1.8-15.9,5.7-19.5,5.7c-1.9,0-2.6-0.6-3.1-1.3c0,0-0.1,0-0.1,0c-4.1,2.7-7.7,5.5-9.1,6.9c0,0,0,0.1,0,0.1        c0.9,0.4,1.8,1.6,2.1,2.7c0,0.1,0.1,0.1,0.1,0.1c2-1.6,6.8-5.8,7.3-6.3c-1.2,1.7-4.8,5.6-5.3,6.2c0.8-0.3,1.9-0.6,2.5-0.6        c0.9,0,1.9,0.2,2.6,0.7c0,0,0.1,0,0.1,0c1.2-1.7,3.9-6,3.9-6c-0.6,1.7-1.8,4.5-2.9,6.4c0,0.1,0,0.1,0.1,0.1        c2.1,0.2,2.6-2.6,5.1-2.5c0,0,0.1,0,0.1-0.1c0.6-1.5,1.4-5.5,1.5-6.3c0.1,1.8-0.2,4.2-0.6,6.3C89.2,162.9,89.3,162.9,89.3,163        z"/>
            </defs>
            <clipPath id="SVGID_6_">
              <path d="M89.3,163c1.8,0.3,2.9-1.6,3.2-1.9c0,0,0,0,0-0.1c0-1.2,0.1-3.5,0.1-4.4c0.2,1,0.4,1.6,0.5,3.7        c0,0.1,0.1,0.1,0.2,0.1c0.9-0.8,1.6-1.1,2.3-1.3c0,0,0.1-0.1,0.1-0.1c-0.1-1.4-0.2-1.9-0.4-3.6c0.4,0.9,0.6,2.1,1,3.5        c0,0,0.1,0.1,0.1,0.1c1.1-0.1,1.5-0.5,2-0.8c0.7-0.4,1.6-1.5,2.5-2.8c0.6-0.8,2.1-2.9,3.7-4.5c0.1-0.1,0-0.2-0.1-0.2        c-6.9,1.8-15.9,5.7-19.5,5.7c-1.9,0-2.6-0.6-3.1-1.3c0,0-0.1,0-0.1,0c-4.1,2.7-7.7,5.5-9.1,6.9c0,0,0,0.1,0,0.1        c0.9,0.4,1.8,1.6,2.1,2.7c0,0.1,0.1,0.1,0.1,0.1c2-1.6,6.8-5.8,7.3-6.3c-1.2,1.7-4.8,5.6-5.3,6.2c0.8-0.3,1.9-0.6,2.5-0.6        c0.9,0,1.9,0.2,2.6,0.7c0,0,0.1,0,0.1,0c1.2-1.7,3.9-6,3.9-6c-0.6,1.7-1.8,4.5-2.9,6.4c0,0.1,0,0.1,0.1,0.1        c2.1,0.2,2.6-2.6,5.1-2.5c0,0,0.1,0,0.1-0.1c0.6-1.5,1.4-5.5,1.5-6.3c0.1,1.8-0.2,4.2-0.6,6.3C89.2,162.9,89.3,162.9,89.3,163        z" transform="matrix(1, 0, 0, 1, 0, 0)" overflow="visible"/>
            </clipPath>
            <path clip-path="url(#SVGID_6_)" fill="#990000" d="M73.2,160.9c2.4,0.9,1.8,2.8,3.7,2.6c1.3-0.2,3.4-1.4,6.2,0.3       c0.3-0.2,2-1.5,3.3-1.8s2.2,0.2,3.3-0.4c1.1-0.6,2.3-1.7,3-2.2c0.7-0.4,1.3-1.3,2.9-1.6c0.1-0.4,0.2-0.5,1.2-0.6s2-0.6,3.3-2.1       c1.3-1.4,3.3-2.7,3.3-2.7s-3,5.9-5.6,6.9s-5.3,4.6-8.4,5c-3.2,0.4-5.1,3.2-7.5,2.3c-2.4-0.9-6.5-0.9-6.5-0.9l-3.1-2.1l-0.5-2.1       L73.2,160.9z"/>
          </g>
        </g>
        <g>
          <path fill="#F5D5AB" d="M242.6,151c-0.8-0.5-7.1,4.5-12.8,4.5c-6.3,0-9.4-5.1-11.7-8.1c-0.1,1.6-0.3,4.3,0.2,6.2      c1.7,0.9,5.4,2.2,7.1,2.7c-1.8-0.3-4.8-0.9-6.6-1.5c0.1,0.1,0.1,0.2,0.2,0.3c1.2,1.5,2.1,2.3,2.6,3.5c2.1-0.1,5.7-0.6,7.3-1.1      c-1.9,0.9-5.3,1.6-7.1,1.9c0.4,1.2,1.1,2.5,2.6,2.9c2-1,6.2-3.8,6.9-4.4c-1.4,1.4-3.8,3.4-5.4,4.5c0.9,0.1,2.2,0.6,3,1.1      c1.4-1.5,4.1-4.5,5-5.6c-1.2,2.1-2.3,4.1-4.4,6.1c0.5,0.4,1,0.7,2.1,0.7c1.4,0,2.1-0.1,3.1-0.6c0.8-2.3,3.7-6.2,4.3-6.8      C239.2,157,243.1,151.3,242.6,151z"/>
          <g>
            <defs>
              <path id="SVGID_7_" d="M242.6,151c-0.8-0.5-7.1,4.5-12.8,4.5c-6.3,0-9.4-5.1-11.7-8.1c-0.1,1.6-0.3,4.3,0.2,6.2        c1.7,0.9,5.4,2.2,7.1,2.7c-1.8-0.3-4.8-0.9-6.6-1.5c0.1,0.1,0.1,0.2,0.2,0.3c1.2,1.5,2.1,2.3,2.6,3.5c2.1-0.1,5.7-0.6,7.3-1.1        c-1.9,0.9-5.3,1.6-7.1,1.9c0.4,1.2,1.1,2.5,2.6,2.9c2-1,6.2-3.8,6.9-4.4c-1.4,1.4-3.8,3.4-5.4,4.5c0.9,0.1,2.2,0.6,3,1.1        c1.4-1.5,4.1-4.5,5-5.6c-1.2,2.1-2.3,4.1-4.4,6.1c0.5,0.4,1,0.7,2.1,0.7c1.4,0,2.1-0.1,3.1-0.6c0.8-2.3,3.7-6.2,4.3-6.8        C239.2,157,243.1,151.3,242.6,151z"/>
            </defs>
            <clipPath id="SVGID_8_">
              <path d="M242.6,151c-0.8-0.5-7.1,4.5-12.8,4.5c-6.3,0-9.4-5.1-11.7-8.1c-0.1,1.6-0.3,4.3,0.2,6.2        c1.7,0.9,5.4,2.2,7.1,2.7c-1.8-0.3-4.8-0.9-6.6-1.5c0.1,0.1,0.1,0.2,0.2,0.3c1.2,1.5,2.1,2.3,2.6,3.5c2.1-0.1,5.7-0.6,7.3-1.1        c-1.9,0.9-5.3,1.6-7.1,1.9c0.4,1.2,1.1,2.5,2.6,2.9c2-1,6.2-3.8,6.9-4.4c-1.4,1.4-3.8,3.4-5.4,4.5c0.9,0.1,2.2,0.6,3,1.1        c1.4-1.5,4.1-4.5,5-5.6c-1.2,2.1-2.3,4.1-4.4,6.1c0.5,0.4,1,0.7,2.1,0.7c1.4,0,2.1-0.1,3.1-0.6c0.8-2.3,3.7-6.2,4.3-6.8        C239.2,157,243.1,151.3,242.6,151z" transform="matrix(1, 0, 0, 1, 0, 0)" overflow="visible"/>
            </clipPath>
            <path clip-path="url(#SVGID_8_)" fill="#990000" d="M218.1,145.8c0,0,0.2,1,0.3,2.1c0.5,5.1,2.6,6.1,2.3,6.9       c-0.1,0.3-0.9-0.3-0.4,0.4c1.2,1.7,2.7,1.7,2.7,3.5c0,1.6,0.9,2,1.9,1.9s1.8,0.3,2.1,0.6c0.2,0.3,0.5,0.6,1.7,0.4       c1.2-0.1,1.7,0,2.2,0.6s0.7,0.9,1.5,0.9c0.8,0,2.7-1.5,3.6-0.7s0.6,3.1-3.5,2.8c-4.1-0.4-6.8-1.3-8.9-2       c-2.1-0.7-4.8-6.6-4.8-6.7s-2.1-5.7-2.1-5.7l0.1-4.5L218.1,145.8z"/>
          </g>
        </g>
      </g>
    </g>
  </g>
</svg>